<svg width="60" height="60" viewBox="0 0 60 60" fill="none" xmlns="http://www.w3.org/2000/svg">
<path d="M29.5833 51.7708C23.4201 51.7708 18.1814 49.6137 13.8672 45.2995C9.55293 40.9853 7.39581 35.7465 7.39581 29.5833C7.39581 23.4201 9.55293 18.1814 13.8672 13.8672C18.1814 9.55296 23.4201 7.39584 29.5833 7.39584C30.1585 7.39584 30.7235 7.41639 31.2782 7.45748C31.8329 7.49856 32.3773 7.5602 32.9114 7.64237C31.2268 8.83392 29.8812 10.385 28.8745 12.2956C27.8679 14.2062 27.3646 16.2708 27.3646 18.4896C27.3646 22.1875 28.6588 25.3307 31.2474 27.9193C33.8359 30.5078 36.9791 31.8021 40.6771 31.8021C42.9369 31.8021 45.0118 31.2988 46.9019 30.2921C48.7919 29.2855 50.3327 27.9398 51.5243 26.2552C51.6065 26.7894 51.6681 27.3338 51.7092 27.8885C51.7503 28.4432 51.7708 29.0081 51.7708 29.5833C51.7708 35.7465 49.6137 40.9853 45.2995 45.2995C40.9852 49.6137 35.7465 51.7708 29.5833 51.7708ZM29.5833 46.8403C33.1991 46.8403 36.445 45.8439 39.3212 43.8511C42.1973 41.8584 44.2928 39.2596 45.6076 36.0547C44.7859 36.2601 43.9641 36.4245 43.1423 36.5478C42.3206 36.671 41.4988 36.7326 40.6771 36.7326C35.6232 36.7326 31.3193 34.9556 27.7652 31.4015C24.2111 27.8474 22.434 23.5434 22.434 18.4896C22.434 17.6678 22.4956 16.8461 22.6189 16.0243C22.7422 15.2026 22.9065 14.3808 23.112 13.559C19.9071 14.8739 17.3083 16.9693 15.3155 19.8455C13.3228 22.7217 12.3264 25.9676 12.3264 29.5833C12.3264 34.3495 14.011 38.4173 17.3802 41.7865C20.7494 45.1557 24.8171 46.8403 29.5833 46.8403Z" fill="#E8EAED"/>
</svg>
