<svg width="24" height="24" viewBox="0 0 24 24" fill="none" xmlns="http://www.w3.org/2000/svg">
<path d="M21.64 13C21.4956 12.8807 21.3207 12.8043 21.1351 12.7796C20.9494 12.7548 20.7606 12.7827 20.59 12.86C19.5326 13.3439 18.3829 13.593 17.22 13.59C15.0689 13.5874 13.006 12.7345 11.4811 11.2171C9.9563 9.69979 9.0932 7.64114 9.08 5.49003C9.08456 4.81586 9.16847 4.14458 9.33 3.49003C9.36428 3.31557 9.35142 3.13512 9.29276 2.96728C9.23409 2.79944 9.13174 2.65028 8.99624 2.53516C8.86075 2.42004 8.69701 2.34313 8.5219 2.31234C8.34679 2.28156 8.16663 2.29802 8 2.36003C6.43233 3.06494 5.06957 4.15679 4.03976 5.53301C3.00995 6.90924 2.34688 8.52465 2.11285 10.2275C1.87882 11.9304 2.08151 13.6648 2.70187 15.2678C3.32223 16.8708 4.33991 18.2898 5.6593 19.3915C6.97869 20.4932 8.55648 21.2414 10.2444 21.5658C11.9324 21.8903 13.6752 21.7803 15.3089 21.2463C16.9427 20.7122 18.414 19.7716 19.5844 18.5128C20.7548 17.254 21.5861 15.7183 22 14.05C22.0504 13.859 22.0431 13.6574 21.9791 13.4705C21.915 13.2836 21.797 13.1199 21.64 13ZM12.14 19.69C10.4618 19.6782 8.8282 19.1479 7.46299 18.1718C6.09778 17.1956 5.06767 15.8214 4.51368 14.2372C3.9597 12.6529 3.90894 10.9362 4.36834 9.32203C4.82774 7.70785 5.77486 6.27513 7.08 5.22003V5.49003C7.08265 8.17851 8.15182 10.7561 10.0529 12.6572C11.9539 14.5582 14.5315 15.6274 17.22 15.63C17.9259 15.6326 18.63 15.5589 19.32 15.41C18.6299 16.7155 17.5965 17.8079 16.3312 18.5692C15.0658 19.3305 13.6167 19.7319 12.14 19.73V19.69Z" fill="white"/>
</svg>
