<svg width="68" height="68" viewBox="0 0 68 68" fill="none" xmlns="http://www.w3.org/2000/svg">
<path d="M14.1667 59.5C12.6083 59.5 11.2743 58.9451 10.1646 57.8354C9.05486 56.7257 8.5 55.3917 8.5 53.8333V14.1667C8.5 12.6083 9.05486 11.2743 10.1646 10.1646C11.2743 9.05486 12.6083 8.5 14.1667 8.5H53.8333C55.3917 8.5 56.7257 9.05486 57.8354 10.1646C58.9451 11.2743 59.5 12.6083 59.5 14.1667V53.8333C59.5 55.3917 58.9451 56.7257 57.8354 57.8354C56.7257 58.9451 55.3917 59.5 53.8333 59.5H14.1667ZM14.1667 53.8333H53.8333V14.1667H14.1667V53.8333ZM17 48.1667H51L40.375 34L31.875 45.3333L25.5 36.8333L17 48.1667Z" fill="#E8EAED"/>
</svg>
