<svg width="60" height="60" viewBox="0 0 60 60" fill="none" xmlns="http://www.w3.org/2000/svg">
<path d="M29.5849 36.9813C31.6394 36.9813 33.3858 36.2622 34.8239 34.824C36.2621 33.3859 36.9812 31.6395 36.9812 29.585C36.9812 27.5305 36.2621 25.7842 34.8239 24.346C33.3858 22.9078 31.6394 22.1888 29.5849 22.1888C27.5304 22.1888 25.7841 22.9078 24.3459 24.346C22.9077 25.7842 22.1887 27.5305 22.1887 29.585C22.1887 31.6395 22.9077 33.3859 24.3459 34.824C25.7841 36.2622 27.5304 36.9813 29.5849 36.9813ZM29.5849 41.9121C26.1744 41.9121 23.2673 40.7102 20.8635 38.3064C18.4597 35.9026 17.2578 32.9955 17.2578 29.585C17.2578 26.1745 18.4597 23.2674 20.8635 20.8636C23.2673 18.4598 26.1744 17.2579 29.5849 17.2579C32.9954 17.2579 35.9025 18.4598 38.3063 20.8636C40.7101 23.2674 41.912 26.1745 41.912 29.585C41.912 32.9955 40.7101 35.9026 38.3063 38.3064C35.9025 40.7102 32.9954 41.9121 29.5849 41.9121ZM12.327 32.0504H2.46533V27.1196H12.327V32.0504ZM56.7045 32.0504H46.8428V27.1196H56.7045V32.0504ZM27.1195 12.3271V2.46542H32.0503V12.3271H27.1195ZM27.1195 56.7046V46.8429H32.0503V56.7046H27.1195ZM15.7786 19.107L9.5534 13.1284L13.0666 9.49186L18.9836 15.6554L15.7786 19.107ZM46.1032 49.6782L40.1246 43.453L43.3912 40.063L49.6164 46.0417L46.1032 49.6782ZM40.0629 15.7787L46.0416 9.5535L49.6781 13.0667L43.5145 18.9837L40.0629 15.7787ZM9.49177 46.1033L15.7169 40.1247L19.1069 43.3913L13.1283 49.6165L9.49177 46.1033Z" fill="black"/>
</svg>
