<svg width="68" height="68" viewBox="0 0 68 68" fill="none" xmlns="http://www.w3.org/2000/svg">
<path d="M11.3335 39.6666V34H31.1668V39.6666H11.3335ZM11.3335 28.3333V22.6666H42.5002V28.3333H11.3335ZM11.3335 17V11.3333H42.5002V17H11.3335ZM36.8335 56.6666V47.9541L52.4877 32.3708C52.9127 31.9458 53.3849 31.6389 53.9043 31.45C54.4238 31.2611 54.9432 31.1666 55.4627 31.1666C56.0293 31.1666 56.5724 31.2729 57.0918 31.4854C57.6113 31.6979 58.0835 32.0166 58.5085 32.4416L61.1293 35.0625C61.5071 35.4875 61.8022 35.9597 62.0147 36.4791C62.2272 36.9986 62.3335 37.518 62.3335 38.0375C62.3335 38.5569 62.2391 39.0882 62.0502 39.6312C61.8613 40.1743 61.5543 40.6583 61.1293 41.0833L45.546 56.6666H36.8335ZM41.0835 52.4166H43.7752L52.346 43.775L51.071 42.4291L49.7252 41.1541L41.0835 49.725V52.4166ZM51.071 42.4291L49.7252 41.1541L52.346 43.775L51.071 42.4291Z" fill="#E8EAED"/>
</svg>
